<svg width="17" height="17" viewBox="0 0 17 17" fill="none" xmlns="http://www.w3.org/2000/svg">
<g clip-path="url(#clip0_346_14324)">
<path d="M14.4526 2.08054H12.4273C11.5136 0.873661 10.0798 0.0805359 8.45264 0.0805359C6.82545 0.0805359 5.3917 0.873661 4.47795 2.08054H2.45264C1.34982 2.08054 0.452637 2.97772 0.452637 4.08054L0.452637 14.0805C0.452637 15.1833 1.34982 16.0805 2.45264 16.0805H14.4526C15.5554 16.0805 16.4526 15.1833 16.4526 14.0805V4.08054C16.4526 2.97772 15.5554 2.08054 14.4526 2.08054ZM8.45264 1.08054C10.6617 1.08054 12.4526 2.87147 12.4526 5.08054C12.4526 7.2896 10.6617 9.08054 8.45264 9.08054C6.24357 9.08054 4.45264 7.2896 4.45264 5.08054C4.45264 2.87147 6.24357 1.08054 8.45264 1.08054ZM15.4526 14.0805C15.4526 14.6327 15.0048 15.0805 14.4526 15.0805H2.45264C1.90045 15.0805 1.45264 14.6327 1.45264 14.0805L1.45264 4.08054C1.45264 3.52835 1.90045 3.08054 2.45264 3.08054H3.87639C3.60701 3.69397 3.45264 4.36866 3.45264 5.08054C3.45264 7.83741 5.69576 10.0805 8.45264 10.0805C11.2095 10.0805 13.4526 7.83741 13.4526 5.08054C13.4526 4.36866 13.2983 3.69397 13.0289 3.08054H14.4526C15.0048 3.08054 15.4526 3.52835 15.4526 4.08054V14.0805ZM8.45264 8.08054C9.27982 8.08054 9.95264 7.40772 9.95264 6.58054C9.95264 6.14554 9.76357 5.75679 9.46701 5.48272L10.412 3.27741C10.5208 3.02397 10.4033 2.72991 10.1492 2.62116C9.8967 2.51241 9.6017 2.6296 9.49295 2.88397L8.54732 5.09022C7.4392 5.01804 6.95264 5.97585 6.95264 6.58054C6.95264 7.40772 7.62545 8.08054 8.45264 8.08054ZM8.45264 6.08054C8.72889 6.08054 8.95264 6.30429 8.95264 6.58054C8.95264 6.85679 8.72889 7.08054 8.45264 7.08054C8.17639 7.08054 7.95264 6.85679 7.95264 6.58054C7.95264 6.30429 8.17639 6.08054 8.45264 6.08054Z" fill="#212121"/>
</g>
<defs>
<clipPath id="clip0_346_14324">
<rect width="16" height="16" fill="white" transform="translate(0.452637 0.0805359)"/>
</clipPath>
</defs>
</svg>
